<svg xmlns="http://www.w3.org/2000/svg" viewBox="0 0 1024 1024"><defs><linearGradient id="bg" x1="0" x2="1" y1="0" y2="1"><stop offset="0" stop-color="#8B5CF6"/><stop offset=".55" stop-color="#5B5BF6"/><stop offset="1" stop-color="#2563EB"/></linearGradient><linearGradient id="screen" x1="0" x2="0" y1="0" y2="1"><stop offset="0" stop-color="#FFF"/><stop offset="1" stop-color="#E4E7FF"/></linearGradient><linearGradient id="house" x1="0" x2="1" y1="0" y2="1"><stop offset="0" stop-color="#8B5CF6"/><stop offset="1" stop-color="#2563EB"/></linearGradient><radialGradient id="shine" cx=".3" cy=".1" r=".9"><stop offset="0" stop-color="#FFF" stop-opacity=".28"/><stop offset=".6" stop-color="#FFF" stop-opacity="0"/></radialGradient><filter id="drop" width="140%" height="150%" x="-20%" y="-20%"><feDropShadow dx="0" dy="22" flood-color="#1E1B4B" flood-opacity=".35" stdDeviation="26"/></filter></defs><rect width="1024" height="1024" fill="url(#bg)" rx="228"/><rect width="1024" height="1024" fill="url(#shine)" rx="228"/><g filter="url(#drop)"><rect width="696" height="470" x="164" y="214" fill="url(#screen)" rx="76"/><rect width="56" height="62" x="484" y="684" fill="#FFF" opacity=".92"/><rect width="268" height="46" x="378" y="736" fill="#FFF" rx="23"/></g><path fill="url(#house)" d="M512 300 L662 430 Q676 443 657 449 L622 449 L622 580 Q622 610 592 610 L432 610 Q402 610 402 580 L402 449 L367 449 Q348 443 362 430 Z"/><path fill="#FFF" stroke="#FFF" stroke-linejoin="round" stroke-width="22" d="M480 478 L568 530 L480 582 Z"/></svg>